<?xml version="1.0" ?><svg data-name="Слой 1" id="Слой_1" viewBox="0 0 128 128" xmlns="http://www.w3.org/2000/svg"><title/><path d="M112.53,62.38a20.29,20.29,0,0,0,.3-3.45A21.5,21.5,0,0,0,83.54,39.26,35.32,35.32,0,0,0,54.5,24c-19,0-34.57,15-34.93,33.68a21.19,21.19,0,0,0,2,42.32h87.12a19,19,0,0,0,3.85-37.62ZM35,54.63l7.44-2.94,2.06,5.21a21.66,21.66,0,0,1,30.92-9.38l3.41,2.08-4.17,6.83-3.41-2.08A13.66,13.66,0,0,0,51.85,60l5.09-2,2.94,7.44L42,72.48ZM85.59,80.31l-2.06-5.21a21.66,21.66,0,0,1-30.92,9.38l-3.41-2.08,4.17-6.83,3.41,2.08A13.66,13.66,0,0,0,76.15,72l-5.09,2-2.94-7.44L86,59.52,93,77.37Z"/></svg>